<svg xmlns:dc="http://purl.org/dc/elements/1.1/" xmlns:cc="http://creativecommons.org/ns#" xmlns:rdf="http://www.w3.org/1999/02/22-rdf-syntax-ns#" xmlns:svg="http://www.w3.org/2000/svg" xmlns="http://www.w3.org/2000/svg" xmlns:sodipodi="http://sodipodi.sourceforge.net/DTD/sodipodi-0.dtd" xmlns:inkscape="http://www.inkscape.org/namespaces/inkscape" version="1.1" x="0px" y="0px" width="20" height="20" viewBox="0 0 20 20" enable-background="new 0 0 32 32" xml:space="preserve" id="svg2" inkscape:version="0.48.4 r9939"><defs id="defs3284"/><metadata id="metadata3274"><rdf:RDF><cc:Work rdf:about=""><dc:format>image/svg+xml</dc:format><dc:type rdf:resource="http://purl.org/dc/dcmitype/StillImage"/><dc:title>PICOL Icon</dc:title><dc:date>2009-03-15</dc:date><dc:creator><cc:Agent><dc:title>Melih Bilgil</dc:title></cc:Agent></dc:creator><dc:rights><cc:Agent><dc:title>Creative Commons BY-SA</dc:title></cc:Agent></dc:rights><dc:publisher><cc:Agent><dc:title>PICOL - Pictorial Communication Language</dc:title></cc:Agent></dc:publisher><dc:identifier>http://blog.picol.org</dc:identifier><dc:source>http://blog.picol.org</dc:source><dc:language>en</dc:language><dc:subject><rdf:Bag><rdf:li>PICOL</rdf:li><rdf:li>icon</rdf:li><rdf:li>icons</rdf:li><rdf:li>sign</rdf:li><rdf:li>GUI</rdf:li><rdf:li>vector</rdf:li><rdf:li>interface</rdf:li></rdf:Bag></dc:subject><dc:description>This is one icon out of all PICOL icons</dc:description><dc:contributor><cc:Agent><dc:title>Melih Bilgil (www.lonja.de), Christopher Adjei (www.boffer.net)</dc:title></cc:Agent></dc:contributor><cc:license rdf:resource="http://creativecommons.org/licenses/by-sa/3.0/"/></cc:Work><cc:License rdf:about="http://creativecommons.org/licenses/by-sa/3.0/"><cc:permits rdf:resource="http://creativecommons.org/ns#Reproduction"/><cc:permits rdf:resource="http://creativecommons.org/ns#Distribution"/><cc:requires rdf:resource="http://creativecommons.org/ns#Notice"/><cc:requires rdf:resource="http://creativecommons.org/ns#Attribution"/><cc:permits rdf:resource="http://creativecommons.org/ns#DerivativeWorks"/><cc:requires rdf:resource="http://creativecommons.org/ns#ShareAlike"/></cc:License></rdf:RDF></metadata><g id="background" transform="translate(0,-12)"><rect x="0" y="0" width="32" height="32" id="rect3277" style="fill:none"/></g><path id="path3280" d="M 9.9 0.1 C 4.5 0.1 0 4.6 0 10.1 0 15.5 4.5 20 9.9 20 c 5.5 0 9.9 -4.5 9.9 -9.9 0 -5.5 -4.5 -9.9 -9.9 -9.9 z M 1.3 10.7 h 3 c 0.1 1.2 0.2 2.2 0.5 3.1 H 2.1 C 1.6 12.9 1.4 11.8 1.3 10.7 z M 10.6 5.1 V 1.5 c 0.6 0.4 1.9 1.6 2.7 3.6 H 10.6 z m 3.2 1.2 c 0.2 0.9 0.4 1.9 0.5 3.1 H 10.6 V 6.3 h 3.2 z M 9 1.7 C 9.1 1.6 9.3 1.5 9.3 1.5 V 5.1 H 6.6 C 6.9 4.3 7.3 3.7 7.6 3.2 8.1 2.5 8.6 2 9 1.7 z M 9.3 6.3 V 9.4 H 5.6 C 5.7 8.3 5.8 7.2 6.1 6.3 H 9.3 z M 4.3 9.4 H 1.3 C 1.4 8.3 1.7 7.3 2.1 6.3 H 4.8 C 4.6 7.3 4.5 8.3 4.4 9.4 z m 1.2 1.2 h 3.7 v 3.1 H 6.1 C 5.8 12.9 5.7 11.9 5.6 10.7 z m 3.7 4.3 v 3.6 C 8.8 18.2 7.5 17.1 6.6 15 h 2.7 z m 1.6 3.4 c -0.1 0.1 -0.2 0.2 -0.3 0.2 v -3.6 h 2.7 c -0.3 0.7 -0.7 1.4 -1.1 1.9 -0.5 0.7 -1 1.2 -1.4 1.5 z M 10.6 13.8 v -3.1 h 3.7 c -0.1 1.2 -0.2 2.2 -0.5 3.1 H 10.6 z m 5 -3.1 h 3.1 c -0.1 1.1 -0.4 2.2 -0.9 3.1 h -2.7 c 0.2 -0.9 0.4 -1.9 0.4 -3.1 z m 0 -1.2 C 15.5 8.3 15.3 7.3 15.1 6.3 h 2.7 c 0.4 0.9 0.7 2 0.8 3.1 H 15.5 z M 17.1 5.1 H 14.7 C 14.1 3.7 13.4 2.6 12.7 1.8 14.5 2.4 16 3.5 17.1 5.1 z M 7.1 1.8 C 6.5 2.6 5.8 3.7 5.2 5.1 H 2.8 C 3.9 3.6 5.4 2.4 7.1 1.8 z M 2.8 15 h 2.4 c 0.6 1.4 1.2 2.5 1.9 3.2 -1.8 -0.6 -3.3 -1.7 -4.3 -3.2 z m 9.9 3.2 c 0.7 -0.7 1.4 -1.9 1.9 -3.2 h 2.4 c -1.1 1.5 -2.5 2.7 -4.3 3.2 z" inkscape:connector-curvature="0"/></svg>