<?xml version="1.0" encoding="UTF-8" standalone="no"?>
<!-- Created with Inkscape (http://www.inkscape.org/) -->

<svg
   xmlns:dc="http://purl.org/dc/elements/1.1/"
   xmlns:cc="http://creativecommons.org/ns#"
   xmlns:rdf="http://www.w3.org/1999/02/22-rdf-syntax-ns#"
   xmlns:svg="http://www.w3.org/2000/svg"
   xmlns="http://www.w3.org/2000/svg"
   xmlns:sodipodi="http://sodipodi.sourceforge.net/DTD/sodipodi-0.dtd"
   xmlns:inkscape="http://www.inkscape.org/namespaces/inkscape"
   version="1.1"
   width="20"
   height="20"
   id="svg3277"
   inkscape:version="0.48.4 r9939"
   sodipodi:docname="MAF_Logo_Icon.svg">
  <sodipodi:namedview
     pagecolor="#ffffff"
     bordercolor="#666666"
     borderopacity="1"
     objecttolerance="10"
     gridtolerance="10"
     guidetolerance="10"
     inkscape:pageopacity="0"
     inkscape:pageshadow="2"
     inkscape:window-width="1229"
     inkscape:window-height="831"
     id="namedview3055"
     showgrid="false"
     inkscape:zoom="15.605022"
     inkscape:cx="21.558379"
     inkscape:cy="8.6956568"
     inkscape:window-x="2062"
     inkscape:window-y="107"
     inkscape:window-maximized="0"
     inkscape:current-layer="svg3277" />
  <defs
     id="defs3279">
    <clipPath
       id="clipPath3023">
      <path
         d="m 141.84,411.034 328.047,0 0,146.966 -328.047,0 0,-146.966 z"
         id="path3025"
         inkscape:connector-curvature="0" />
    </clipPath>
  </defs>
  <metadata
     id="metadata3282">
    <rdf:RDF>
      <cc:Work
         rdf:about="">
        <dc:format>image/svg+xml</dc:format>
        <dc:type
           rdf:resource="http://purl.org/dc/dcmitype/StillImage" />
        <dc:title></dc:title>
      </cc:Work>
    </rdf:RDF>
  </metadata>
  <path
     d="m 16.284751,0.02674647 -12.4999998,0 c -2.1,0 -3.80000022,1.70000003 -3.80000022,3.80000003 l 0,12.4999995 c 0,2.1 1.70000022,3.8 3.80000022,3.8 l 12.4999998,0 c 2.1,0 3.8,-1.7 3.8,-3.8 l 0,-12.4999995 c 0,-2.1 -1.7,-3.80000003 -3.8,-3.80000003 z"
     id="path3"
     inkscape:connector-curvature="0"
     style="fill:#000000;fill-opacity:1"
     sodipodi:nodetypes="sssssssss" />
  <g
     id="g4014"
     transform="matrix(0.05212829,0,0,0.05212829,-0.62992309,4.6012279)"
     style="fill:#ffffff;fill-opacity:1">
    <g
       style="fill:#ffffff;fill-opacity:1"
       transform="matrix(1.25,0,0,-1.25,390.54825,85.173125)"
       id="g3139">
      <path
         d="m 0,0 c 0.026,-0.985 -3.299,-0.424 -8.23,-2.03 -7.693,-2.509 -10.013,-4.48 -10.107,-6.191 -0.243,-4.283 9.83,-12.702 7.199,-24.696 -1.601,-7.304 -17.657,-18.774 -45.524,-23.854 -21.66,-3.947 -41.524,-7.753 -48.804,-16.092 0,0 7.076,12.986 31.451,18.41 29.197,6.497 51.165,16.818 52.305,26.6 1.038,8.886 -3.784,12.921 -3.994,18.078 -0.088,2.176 2.224,5.007 4.857,6.312 C -17.178,-1.642 -8.49,1.201 0,0"
         id="path3141"
         style="fill:#ffffff;fill-opacity:1;fill-rule:nonzero;stroke:none"
         inkscape:connector-curvature="0" />
    </g>
    <g
       style="fill:#ffffff;fill-opacity:1"
       transform="matrix(1.25,0,0,-1.25,352.64087,69.354375)"
       id="g3143">
      <path
         d="m 0,0 c 0,0 1.086,1.743 0.867,5.172 -0.269,4.159 -4.221,8.982 -15.886,11.106 -15.301,2.788 -34.87,7.962 -45.394,25.316 0,0 10.554,-11.341 32.848,-14.607 C -4.489,23.607 2.232,21.034 5.697,15.946 9.646,10.155 7.61,3.082 6.534,1.284 c 0,0 4.518,0.976 9.679,-1.052 4.117,-1.617 6.381,-5.7 6.597,-8.333 0.091,-1.136 0.236,-1.113 0.236,-1.113 0,0 -0.062,-0.373 -2.464,1.765 -3.085,2.743 -9.352,3.928 -16.989,2.47 -7.463,-1.426 -11.015,-4.069 -17.801,-6.02 -8.82,-2.539 -17.026,-2.962 -17.026,-2.962 0,0 10.399,2.998 18.524,7.998 C -3.867,-0.52 0,0 0,0"
         id="path3145"
         style="fill:#ffffff;fill-opacity:1;fill-rule:nonzero;stroke:none"
         inkscape:connector-curvature="0" />
    </g>
    <g
       style="fill:#ffffff;fill-opacity:1"
       transform="matrix(1.25,0,0,-1.25,110.55012,113.8765)"
       id="g3147">
      <path
         d="m 0,0 -8.361,-30.137 19.079,0 6.179,23.001 c 3.247,-1.176 6.509,-2.246 9.771,-3.223 l -13.663,-19.778 20.644,0 10.251,15.456 c 8.307,-1.698 16.513,-2.842 24.442,-3.531 l 1.609,-11.925 19.96,0 -1.712,11.08 c 3.347,0.007 6.605,0.089 9.76,0.237 l -3.057,-11.317 19.083,0 c 0,0 5.037,11.284 19.784,18.672 16.142,8.087 21.235,19.691 21.235,19.691 C 75.436,-27.243 0,0 0,0 m 29.114,38.353 -5.894,0 c 0,0 -9.796,0.196 -16.965,-4.538 -7.17,-4.733 -10.07,-8.837 -10.07,-8.837 l -16.912,-19.501 -10.282,32.876 -1.082,0 c 0,0 -7.104,0.185 -13.934,-3.951 -5.694,-3.445 -8.311,-9.616 -8.311,-9.616 l -18.324,-54.923 19.37,0 12.697,34.245 10.085,-38.613 L 0,0 c 0,0 6.566,-1.894 17.833,-3.652 l 11.281,42.005 z m 95.63,-28.274 3.133,11.641 c 0,0 17.763,-1.91 32.131,-0.193 1.212,4.422 4.588,16.826 4.588,16.826 l -33.259,0 c 0,0 -8.16,-0.05 -13.282,-3.494 -6.892,-4.635 -8.202,-9.622 -8.202,-9.622 l -7.482,-27.71 c 6.622,1.231 13.396,2.781 20.277,4.708 l 2.096,7.844 z m -73.286,-13.114 12.817,19.57 2.545,-19.57 0.336,-3.374 c 6.034,0.245 12.337,0.712 18.858,1.472 l -6.768,43.781 -3.161,0 c 0,0 -6.283,0.821 -14.263,-3.494 C 56.6,32.527 52.367,26.842 52.367,26.842 L 30.193,-5.254 c 5.708,-0.594 12.082,-1.057 19.008,-1.255 l 2.257,3.474 z"
         id="path3149"
         style="fill:#ffffff;fill-opacity:1;fill-rule:nonzero;stroke:none"
         inkscape:connector-curvature="0" />
    </g>
  </g>
</svg>
