<?xml version="1.0" encoding="UTF-8" standalone="no"?>
<svg
   xmlns:dc="http://purl.org/dc/elements/1.1/"
   xmlns:cc="http://creativecommons.org/ns#"
   xmlns:rdf="http://www.w3.org/1999/02/22-rdf-syntax-ns#"
   xmlns:svg="http://www.w3.org/2000/svg"
   xmlns="http://www.w3.org/2000/svg"
   xmlns:sodipodi="http://sodipodi.sourceforge.net/DTD/sodipodi-0.dtd"
   xmlns:inkscape="http://www.inkscape.org/namespaces/inkscape"
   version="1.1"
   id="Layer_1"
   x="0px"
   y="0px"
   width="20"
   height="20"
   viewBox="0 0 20 20"
   enable-background="new 0 0 26 26"
   xml:space="preserve"
   inkscape:version="0.48.4 r9939"
   sodipodi:docname="wikipedia.svg"><sodipodi:namedview
     pagecolor="#ffffff"
     bordercolor="#666666"
     borderopacity="1"
     objecttolerance="10"
     gridtolerance="10"
     guidetolerance="10"
     inkscape:pageopacity="0"
     inkscape:pageshadow="2"
     inkscape:window-width="1118"
     inkscape:window-height="879"
     id="namedview2995"
     showgrid="false"
     inkscape:zoom="24.75"
     inkscape:cx="3.6969697"
     inkscape:cy="10"
     inkscape:window-x="2529"
     inkscape:window-y="104"
     inkscape:window-maximized="0"
     inkscape:current-layer="Layer_1" /><metadata
     id="metadata9"><rdf:RDF><cc:Work
         rdf:about=""><dc:format>image/svg+xml</dc:format><dc:type
           rdf:resource="http://purl.org/dc/dcmitype/StillImage" /></cc:Work></rdf:RDF></metadata><defs
     id="defs7" /><path
     d="M 16.3 -0.1 H 3.8 C 1.7 -0.1 0 1.6 0 3.7 V 16.2 C 0 18.3 1.7 20 3.8 20 H 16.3 c 2.1 0 3.8 -1.7 3.8 -3.8 V 3.7 c 0 -2.1 -1.7 -3.8 -3.8 -3.8 z m 2.4 6.8 c 0 0.1 -0.1 0.2 -0.2 0.2 H 17.5 L 12.7 17 c -0 0.1 -0.1 0.1 -0.2 0.1 h -0 c -0.1 0 -0.1 -0 -0.2 -0.1 L 10.2 12.6 7.7 17 C 7.7 17.1 7.6 17.1 7.6 17.1 7.5 17.1 7.4 17.1 7.4 17 L 2.6 6.9 H 1.5 c -0.1 0 -0.2 -0.1 -0.2 -0.2 v -0.5 c 0 -0.1 0.1 -0.2 0.2 -0.2 h 3.9 c 0.1 0 0.2 0.1 0.2 0.2 v 0.5 c 0 0.1 -0.1 0.2 -0.2 0.2 H 4.6 L 7.9 14.5 9.6 11.3 7.4 7 H 6.9 c -0.1 0 -0.2 -0.1 -0.2 -0.2 v -0.5 c 0 -0.1 0.1 -0.2 0.2 -0.2 H 9.7 c 0.1 0 0.2 0.1 0.2 0.2 v 0.5 c 0 0.1 -0.1 0.2 -0.2 0.2 H 9.2 l 1.3 2.7 1.5 -2.7 h -0.9 c -0.1 0 -0.2 -0.1 -0.2 -0.2 v -0.5 c 0 -0.1 0.1 -0.2 0.2 -0.2 h 2.8 c 0.1 0 0.2 0.1 0.2 0.2 v 0.5 c 0 0.1 -0.1 0.2 -0.2 0.2 h -0.6 l -2.2 3.9 1.8 3.6 3.4 -7.6 h -1.1 c -0.1 0 -0.2 -0.1 -0.2 -0.2 v -0.5 c 0 -0.1 0.1 -0.2 0.2 -0.2 h 3.4 c 0.1 0 0.2 0.1 0.2 0.2 v 0.5 z"
     id="path3"
     inkscape:connector-curvature="0"
     style="fill:#000000;fill-opacity:1" /></svg>