<?xml version="1.0" encoding="UTF-8" standalone="no"?>
<svg
   xmlns:dc="http://purl.org/dc/elements/1.1/"
   xmlns:cc="http://creativecommons.org/ns#"
   xmlns:rdf="http://www.w3.org/1999/02/22-rdf-syntax-ns#"
   xmlns:svg="http://www.w3.org/2000/svg"
   xmlns="http://www.w3.org/2000/svg"
   xmlns:sodipodi="http://sodipodi.sourceforge.net/DTD/sodipodi-0.dtd"
   xmlns:inkscape="http://www.inkscape.org/namespaces/inkscape"
   width="1200"
   height="600"
   viewBox="0 0 1200 600"
   id="svg2"
   version="1.1"
   inkscape:version="0.48.4 r9939"
   sodipodi:docname="Mongolia.svg">
  <metadata
     id="metadata38">
    <rdf:RDF>
      <cc:Work
         rdf:about="">
        <dc:format>image/svg+xml</dc:format>
        <dc:type
           rdf:resource="http://purl.org/dc/dcmitype/StillImage" />
      </cc:Work>
    </rdf:RDF>
  </metadata>
  <defs
     id="defs36" />
  <sodipodi:namedview
     pagecolor="#ffffff"
     bordercolor="#666666"
     borderopacity="1"
     objecttolerance="10"
     gridtolerance="10"
     guidetolerance="10"
     inkscape:pageopacity="0"
     inkscape:pageshadow="2"
     inkscape:window-width="1920"
     inkscape:window-height="1125"
     id="namedview34"
     showgrid="false"
     inkscape:zoom="0.88"
     inkscape:cx="814.63415"
     inkscape:cy="365.63312"
     inkscape:window-x="1911"
     inkscape:window-y="-9"
     inkscape:window-maximized="1"
     inkscape:current-layer="svg2" />
  <g
     id="g4"
     style="fill:#f9cf02"
     transform="matrix(0.25055999,0,0,0.24937628,0,1.4969198)">
    <g
       transform="scale(5,5)"
       id="g6">
      <rect
         width="960"
         height="480"
         id="rect8"
         x="0"
         y="0"
         style="fill:#c4272f" />
      <rect
         x="320"
         width="320"
         height="480"
         id="rect10"
         y="0"
         style="fill:#015197" />
      <circle
         cx="160"
         cy="164"
         r="44"
         id="circle12"
         d="m 204,164 c 0,24.30053 -19.69947,44 -44,44 -24.30053,0 -44,-19.69947 -44,-44 0,-24.30053 19.69947,-44 44,-44 24.30053,0 44,19.69947 44,44 z"
         sodipodi:cx="160"
         sodipodi:cy="164"
         sodipodi:rx="44"
         sodipodi:ry="44" />
      <circle
         cx="160"
         cy="144"
         r="48"
         id="circle14"
         d="m 208,144 c 0,26.50967 -21.49033,48 -48,48 -26.50967,0 -48,-21.49033 -48,-48 0,-26.50967 21.49033,-48 48,-48 26.50967,0 48,21.49033 48,48 z"
         sodipodi:cx="160"
         sodipodi:cy="144"
         sodipodi:rx="48"
         sodipodi:ry="48"
         style="fill:#c4272f" />
      <circle
         cx="160"
         cy="152"
         r="32"
         id="circle16"
         d="m 192,152 c 0,17.67311 -14.32689,32 -32,32 -17.67311,0 -32,-14.32689 -32,-32 0,-17.67311 14.32689,-32 32,-32 17.67311,0 32,14.32689 32,32 z"
         sodipodi:cx="160"
         sodipodi:cy="152"
         sodipodi:rx="32"
         sodipodi:ry="32" />
      <path
         d="m 140,92 a 20,20 0 0 0 40,0 c 0,-8 -5,-9 -5,-12 0,-3 3,-7 -3,-12 3,5 -2,6 -2,11 0,5 2,5 2,9"
         id="path18"
         inkscape:connector-curvature="0" />
      <path
         d="m 72,216 v 192 h 40 V 216 z m 136,0 v 192 h 40 V 216 z m -88,32 v 16 h 80 v -16 z m 0,112 v 16 h 80 v -16 z m 0,-144 h 80 l -40,24 z m 0,168 h 80 l -40,24 z"
         id="path20"
         inkscape:connector-curvature="0" />
    </g>
    <g
       id="g22"
       style="stroke:#c4272f;stroke-width:24">
      <circle
         cx="800"
         cy="1560"
         r="212"
         id="circle24"
         sodipodi:cx="800"
         sodipodi:cy="1560"
         sodipodi:rx="212"
         sodipodi:ry="212"
         d="m 1012,1560 c 0,117.0844 -94.91563,212 -212,212 -117.08437,0 -212,-94.9156 -212,-212 0,-117.0844 94.91563,-212 212,-212 117.08437,0 212,94.9156 212,212 z" />
      <path
         d="m 800,1348 a 106,106 0 0 1 0,212 106,106 0 0 0 0,212"
         id="path26"
         inkscape:connector-curvature="0"
         style="fill:none" />
    </g>
  </g>
  <g
     id="g28"
     style="fill:#c4272f"
     transform="matrix(0.25055999,0,0,0.24937628,0,1.4969198)">
    <circle
       cx="800"
       cy="1454"
       r="40"
       id="circle30"
       sodipodi:cx="800"
       sodipodi:cy="1454"
       sodipodi:rx="40"
       sodipodi:ry="40"
       d="m 840,1454 c 0,22.0914 -17.90861,40 -40,40 -22.09139,0 -40,-17.9086 -40,-40 0,-22.0914 17.90861,-40 40,-40 22.09139,0 40,17.9086 40,40 z" />
    <circle
       cx="800"
       cy="1666"
       r="40"
       id="circle32"
       sodipodi:cx="800"
       sodipodi:cy="1666"
       sodipodi:rx="40"
       sodipodi:ry="40"
       d="m 840,1666 c 0,22.0914 -17.90861,40 -40,40 -22.09139,0 -40,-17.9086 -40,-40 0,-22.0914 17.90861,-40 40,-40 22.09139,0 40,17.9086 40,40 z" />
  </g>
</svg>
